# xmcd CD database file
#
# Track frame offsets:
#	187
#	3842
#	28035
#	42852
#	66737
#	90385
#	114147
#	126692
#	140310
#	157502
#	182780
#
# Disc length: 2749 seconds
#
# Revision: 1
# Processed by: cddbd v1.5.2PL0 Copyright (c) Steve Scherf et al.
# Submitted via: CDex 1.70beta3
#
DISCID=870abb0b
DTITLE=PATA - Pata
DYEAR=1993
DGENRE=Hard Rock
TTITLE0=6Hours To Minute
TTITLE1=East Bound
TTITLE2=5 O'clock
TTITLE3=All The Way
TTITLE4=So Far
TTITLE5=Road Of Love
TTITLE6=Little Iron Waltz
TTITLE7=Story Of A Young Boy
TTITLE8=Psychedelic Jam
TTITLE9=Positively Unsure
TTITLE10=Strato Demon
EXTD=YEAR: 1993
EXTT0=
EXTT1=
EXTT2=
EXTT3=
EXTT4=
EXTT5=
EXTT6=
EXTT7=
EXTT8=
EXTT9=
EXTT10=
PLAYORDER=
